<?xml version="1.0" standalone="no"?>
<!DOCTYPE svg PUBLIC "-//W3C//DTD SVG 1.1//EN" "http://www.w3.org/Graphics/SVG/1.1/DTD/svg11.dtd" >
<svg xmlns="http://www.w3.org/2000/svg" xmlns:xlink="http://www.w3.org/1999/xlink" version="1.1">
<metadata></metadata>
<defs>
<font id="icomoon-freeregular" horiz-adv-x="1280" >
<font-face units-per-em="2048" ascent="1920" descent="-128" />
<missing-glyph horiz-adv-x="1024" />
<glyph horiz-adv-x="0" d="M0 0z" />
<glyph horiz-adv-x="0" d="M0 0z" />
<glyph horiz-adv-x="682" />
<glyph horiz-adv-x="0" d="M0 0z" />
<glyph unicode=" " horiz-adv-x="1024" d="M0 0z" />
<glyph unicode="!" horiz-adv-x="384" d="M128 320v128q0 26 19 45t45 19t45 -19t19 -45v-128q0 -26 -19 -45t-45 -19t-45 19t-19 45zM128 768v832q0 26 19 45t45 19t45 -19t19 -45v-832q0 -26 -19 -45t-45 -19t-45 19t-19 45z" />
<glyph unicode="&#x22;" horiz-adv-x="640" d="M128 1344v384q0 26 19 45t45 19t45 -19t19 -45v-384q0 -26 -19 -45t-45 -19t-45 19t-19 45zM384 1344v384q0 26 19 45t45 19t45 -19t19 -45v-384q0 -26 -19 -45t-45 -19t-45 19t-19 45z" />
<glyph unicode="#" horiz-adv-x="1664" d="M128 704q0 -26 19 -45t45 -19h254l-60 -308q-6 -26 9 -48t41 -26q2 -2 5 -2h7q22 0 40 14t22 38l68 332h380l-60 -308q-6 -26 9 -48t41 -26q2 -2 5 -2h7q22 0 40 14t22 38l68 332h254q26 0 45 19t19 45t-19 45t-45 19h-230l78 384h280q26 0 45 19t19 45t-19 45t-45 19 h-254l60 308q6 26 -9 48t-41 26q-26 6 -48 -9t-26 -41l-68 -332h-380l60 308q6 26 -9 48t-41 26q-26 6 -48 -9t-26 -41l-68 -332h-254q-26 0 -45 -19t-19 -45t19 -45t45 -19h230l-78 -384h-280q-26 0 -45 -19t-19 -45zM602 768l78 384h382l-78 -384h-382z" />
<glyph unicode="$" horiz-adv-x="1408" d="M128 1280q0 -84 49 -150t147 -116q66 -32 148 -57t168 -47v-524q-92 6 -165 23t-121 33q-60 22 -93 40t-33 20q-22 14 -48 9t-42 -27q-14 -22 -9 -48t27 -42q6 -4 134 -64t350 -72v-66q0 -26 19 -45t45 -19t45 19t19 45v66q136 6 237 37t165 89q56 48 83 113t27 143 q0 84 -49 150t-147 116q-66 32 -148 57t-168 47v524q92 -6 165 -23t121 -33q60 -22 93 -41l33 -19q22 -14 48 -9t42 27q14 22 9 48t-27 42q-6 4 -134 64t-350 72v66q0 26 -19 45t-45 19t-45 -19t-19 -45v-66q-136 -6 -237 -37t-165 -89q-56 -48 -83 -113t-27 -143zM256 1280 q0 50 16 90t50 70q48 42 127 66t191 28v-492q-72 18 -139 39t-121 49q-42 20 -83 56t-41 94zM768 386v492q72 -18 139 -39t121 -49q42 -20 83 -56t41 -94q0 -50 -16 -90t-50 -70q-48 -42 -127 -66t-191 -28z" />
<glyph unicode="%" horiz-adv-x="1536" d="M128 1344q0 58 4 112t28 98q28 56 84 83t140 27t140 -27t84 -83q24 -44 28 -98t4 -112t-4 -112t-28 -98q-28 -56 -84 -83t-140 -27t-140 27t-84 83q-24 44 -28 98t-4 112zM256 1344q0 -114 18 -153t110 -39t110 39t18 153t-18 153t-110 39t-110 -39t-18 -153zM257 308 q-5 26 11 48l896 1280q14 22 40 27t48 -11q22 -14 27 -40t-11 -48l-896 -1280q-8 -14 -22 -21t-30 -7q-10 0 -19 3t-17 9q-22 14 -27 40zM896 576q0 58 4 112t28 98q28 56 84 83t140 27t140 -27t84 -83q24 -44 28 -98t4 -112t-4 -112t-28 -98q-28 -56 -84 -83t-140 -27 t-140 27t-84 83q-24 44 -28 98t-4 112zM1024 576q0 -114 18 -153t110 -39t110 39t18 153t-18 153t-110 39t-110 -39t-18 -153z" />
<glyph unicode="&#x26;" d="M128 704q0 -86 15 -175t73 -155q52 -60 140 -89t220 -29t220 29t140 89q58 66 73 155t15 175v64h64q26 0 45 19t19 45t-19 45t-45 19h-384q-26 0 -45 -19t-19 -45t19 -45t45 -19h192v-64q0 -96 -13 -154t-43 -92q-34 -38 -98 -56t-166 -18t-166 18t-98 56q-30 34 -43 92 t-13 154t13 154t43 92q34 38 98 56t166 18q26 0 45 19t19 45t-19 45t-45 19q-60 0 -98 9t-56 29q-20 18 -29 56t-9 98t9 98t29 56q18 20 56 29t98 9t98 -9t56 -29q20 -18 29 -56t9 -98q0 -26 19 -45t45 -19t45 19t19 45q0 88 -18 147t-56 99q-40 38 -99 56t-147 18t-147 -18 t-99 -56q-38 -40 -56 -99t-18 -147q0 -82 16 -139t48 -95q-32 -14 -58 -33t-46 -43q-58 -66 -73 -155t-15 -175z" />
<glyph unicode="'" horiz-adv-x="384" d="M128 1344v384q0 26 19 45t45 19t45 -19t19 -45v-384q0 -26 -19 -45t-45 -19t-45 19t-19 45z" />
<glyph unicode="(" horiz-adv-x="768" d="M128 896q0 146 26 288t74 270q54 138 130 251t176 199q20 18 46 16t44 -22t16 -46t-22 -44q-84 -74 -152 -174t-114 -217t-71 -249t-25 -272t25 -272t71 -249t114 -217t152 -174q20 -18 22 -44t-16 -46q-10 -10 -22 -16t-26 -6q-12 0 -23 4t-19 12q-100 86 -176 199 t-130 251q-48 128 -74 270t-26 288z" />
<glyph unicode=")" horiz-adv-x="768" d="M128 -60q-2 -26 16 -46q10 -10 22 -16t26 -6q12 0 23 4t19 12q100 86 176 199t130 251q48 128 74 270t26 288t-26 288t-74 270q-54 138 -130 251t-176 199q-20 18 -46 16t-44 -22t-16 -46t22 -44q84 -74 152 -174t114 -217t71 -249t25 -272t-25 -272t-71 -249t-114 -217 t-152 -174q-20 -18 -22 -44z" />
<glyph unicode="*" horiz-adv-x="1152" d="M129 1100q-5 -26 9 -48q10 -14 24 -21t30 -7q10 0 19 3t17 7l284 190v-264q0 -26 19 -45t45 -19t45 19t19 45v264l284 -190q8 -4 17 -7t19 -3q16 0 30 7t24 21q14 22 9 48t-27 42l-304 202l304 202q22 16 27 42t-9 48q-16 22 -42 27t-48 -9l-284 -190v264q0 26 -19 45 t-45 19t-45 -19t-19 -45v-264l-284 190q-22 14 -48 9t-42 -27q-14 -22 -9 -48t27 -42l304 -202l-304 -202q-22 -16 -27 -42z" />
<glyph unicode="+" horiz-adv-x="1152" d="M128 832q0 -26 19 -45t45 -19h320v-320q0 -26 19 -45t45 -19t45 19t19 45v320h320q26 0 45 19t19 45t-19 45t-45 19h-320v320q0 26 -19 45t-45 19t-45 -19t-19 -45v-320h-320q-26 0 -45 -19t-19 -45z" />
<glyph unicode="," horiz-adv-x="512" d="M128 64q0 -26 19 -45t45 -19q14 0 25 5t21 13q4 6 75 113t71 317q0 26 -19 45t-45 19h-128q-26 0 -45 -19t-19 -45t19 -45t45 -19h62q-14 -136 -59 -204t-49 -72v2q-8 -10 -13 -21t-5 -25z" />
<glyph unicode="-" horiz-adv-x="896" d="M128 832q0 -26 19 -45t45 -19h512q26 0 45 19t19 45t-19 45t-45 19h-512q-26 0 -45 -19t-19 -45z" />
<glyph unicode="." horiz-adv-x="384" d="M128 320v128q0 26 19 45t45 19t45 -19t19 -45v-128q0 -26 -19 -45t-45 -19t-45 19t-19 45z" />
<glyph unicode="/" horiz-adv-x="1152" d="M132 -40l768 1920q10 24 35 35t49 1t35 -35t1 -49l-768 -1920q-8 -18 -24 -29t-36 -11q-6 0 -12 1t-12 3q-24 10 -35 35t-1 49z" />
<glyph unicode="0" d="M128 960q0 226 28 332t60 164q60 104 165 156t259 52t259 -52t165 -156q58 -102 73 -236t15 -260q0 -226 -28 -332t-60 -164q-60 -104 -165 -156t-259 -52t-259 52t-165 156q-58 102 -73 236t-15 260zM256 960q0 -162 17 -264t55 -168q26 -46 92 -95t220 -49t220 49 t92 95q38 66 55 168t17 264t-17 264t-55 168q-26 46 -92 95t-220 49t-220 -49t-92 -95q-38 -66 -55 -168t-17 -264z" />
<glyph unicode="1" horiz-adv-x="640" d="M128 1344q0 26 18 46l256 256q14 12 33 16t37 -2q18 -8 29 -24t11 -36v-1280q0 -26 -19 -45t-45 -19t-45 19t-19 45v1126l-146 -148q-20 -18 -46 -18t-46 18q-18 20 -18 46z" />
<glyph unicode="2" d="M128 320q0 146 48 258t144 192q82 68 182 108t192 72q158 54 244 105t86 161q0 96 -14 153t-48 89q-38 40 -117 59t-205 19t-205 -19t-117 -59q-34 -32 -48 -89t-14 -153q0 -26 -19 -45t-45 -19t-45 19t-19 45q0 92 17 180t81 154q60 58 160 86t254 28t254 -28t160 -86 q64 -66 81 -154t17 -180q0 -84 -35 -150t-105 -114q-58 -40 -128 -68t-148 -54q-90 -32 -178 -67t-156 -91q-64 -54 -99 -125t-45 -163h830q26 0 45 -19t19 -45t-19 -45t-45 -19h-896q-26 0 -45 19t-19 45z" />
<glyph unicode="3" d="M132 564q8 -78 41 -135t91 -95q60 -40 152 -59t224 -19q150 0 250 25t160 79q68 60 85 137t17 143t-17 143t-85 137q-12 12 -27 22t-31 18q16 8 31 18t27 22q68 60 85 137t17 143t-17 143t-85 137q-60 54 -160 79t-250 25q-132 0 -225 -20t-155 -60q-56 -38 -88 -96 t-40 -138q-4 -26 13 -46t43 -24q26 -2 47 15t23 43q6 58 59 128t323 70q122 0 203 -18t123 -54q30 -28 44 -71t14 -113t-14 -113t-44 -71q-42 -36 -122 -54t-204 -18h-64q-26 0 -45 -19t-19 -45t19 -45t45 -19h64q122 0 203 -18t123 -54q30 -28 44 -71t14 -113t-14 -113 t-44 -71q-42 -36 -123 -54t-203 -18q-248 0 -310 60t-70 134q-4 26 -25 43t-47 13q-26 -2 -43 -23t-13 -47z" />
<glyph unicode="4" d="M128 708q2 18 12 34l640 896q12 16 32 23t40 -1q20 -6 32 -23t12 -37v-832h192q26 0 45 -19t19 -45t-19 -45t-45 -19h-192v-320q0 -26 -19 -45t-45 -19t-45 19t-19 45v320h-576q-18 0 -33 9t-23 25q-10 16 -8 34zM316 768h452v632z" />
<glyph unicode="5" d="M173 460q5 26 27 42q22 14 48 9t42 -27q12 -18 75 -59t275 -41q122 0 203 18t123 54q30 28 44 71t14 113t-14 113t-44 71q-42 36 -123 54t-203 18h-320q-14 0 -26 5t-22 17q-8 10 -13 22t-3 26l64 640q2 24 21 41t43 17h704q26 0 45 -19t19 -45t-19 -45t-45 -19h-646 l-52 -512h250q150 0 250 -25t160 -79q68 -60 85 -137t17 -143t-17 -143t-85 -137q-60 -54 -160 -79t-250 -25q-90 0 -162 9t-128 29q-56 18 -97 48t-69 70q-16 22 -11 48z" />
<glyph unicode="6" d="M128 640q0 -66 17 -143t85 -137q60 -54 160 -79t250 -25t250 25t160 79q68 60 85 137t17 143t-17 143t-85 137q-60 54 -160 79t-250 25q-134 0 -228 -20t-156 -64v340q0 70 14 113t44 71q42 36 123 54t203 18q270 0 323 -70t59 -128q2 -26 23 -43t47 -15q26 4 43 24 t13 46q-8 80 -40 138t-88 96q-62 40 -155 60t-225 20q-150 0 -250 -25t-160 -79q-68 -60 -85 -137t-17 -143v-640zM256 640q0 70 14 113t44 71q42 36 123 54t203 18t203 -18t123 -54q30 -28 44 -71t14 -113t-14 -113t-44 -71q-42 -36 -123 -54t-203 -18t-203 18t-123 54 q-30 28 -44 71t-14 113z" />
<glyph unicode="7" d="M128 1600q0 26 19 45t45 19h896q16 0 31 -8t23 -22q10 -14 10 -31t-6 -31l-640 -1280q-10 -18 -25 -27t-33 -9q-8 0 -15 2t-13 4q-24 12 -33 37t3 49l594 1188h-792q-26 0 -45 19t-19 45z" />
<glyph unicode="8" d="M128 640q0 -66 17 -143t85 -137q60 -54 160 -79t250 -25t250 25t160 79q68 60 85 137t17 143t-17 143t-85 137q-12 12 -27 22t-31 18q16 8 31 18t27 22q68 60 85 137t17 143t-17 143t-85 137q-60 54 -160 79t-250 25t-250 -25t-160 -79q-68 -60 -85 -137t-17 -143 t17 -143t85 -137q12 -12 27 -22t31 -18q-16 -8 -31 -18t-27 -22q-68 -60 -85 -137t-17 -143zM256 640q0 70 14 113t44 71q42 36 123 54t203 18t203 -18t123 -54q30 -28 44 -71t14 -113t-14 -113t-44 -71q-42 -36 -123 -54t-203 -18t-203 18t-123 54q-30 28 -44 71t-14 113z M256 1280q0 70 14 113t44 71q42 36 123 54t203 18t203 -18t123 -54q30 -28 44 -71t14 -113t-14 -113t-44 -71q-42 -36 -123 -54t-203 -18t-203 18t-123 54q-30 28 -44 71t-14 113z" />
<glyph unicode="9" d="M128 1280q0 -66 17 -143t85 -137q60 -54 160 -79t250 -25q134 0 228 20t156 64v-340q0 -70 -14 -113t-44 -71q-42 -36 -123 -54t-203 -18q-270 0 -323 70t-59 128q-2 26 -23 43t-47 15q-26 -4 -43 -24t-13 -46q8 -80 40 -138t88 -96q62 -40 155 -60t225 -20q150 0 250 25 t160 79q68 60 85 137t17 143v640q0 66 -17 143t-85 137q-60 54 -160 79t-250 25t-250 -25t-160 -79q-68 -60 -85 -137t-17 -143zM256 1280q0 70 14 113t44 71q42 36 123 54t203 18t203 -18t123 -54q30 -28 44 -71t14 -113t-14 -113t-44 -71q-42 -36 -123 -54t-203 -18 t-203 18t-123 54q-30 28 -44 71t-14 113z" />
<glyph unicode=":" horiz-adv-x="384" d="M128 320v128q0 26 19 45t45 19t45 -19t19 -45v-128q0 -26 -19 -45t-45 -19t-45 19t-19 45zM128 1088v128q0 26 19 45t45 19t45 -19t19 -45v-128q0 -26 -19 -45t-45 -19t-45 19t-19 45z" />
<glyph unicode=";" horiz-adv-x="512" d="M128 64q0 -26 19 -45t45 -19q14 0 25 5t21 13q4 6 75 113t71 317q0 26 -19 45t-45 19h-128q-26 0 -45 -19t-19 -45t19 -45t45 -19h62q-14 -136 -59 -204t-49 -72v2q-8 -10 -13 -21t-5 -25zM256 1088v128q0 26 19 45t45 19t45 -19t19 -45v-128q0 -26 -19 -45t-45 -19 t-45 19t-19 45z" />
<glyph unicode="&#x3c;" horiz-adv-x="1152" d="M128 832q0 18 10 34t26 24l768 384q24 12 49 3t37 -33t3 -49t-33 -37l-652 -326l652 -326q24 -12 33 -37t-3 -49q-10 -18 -25 -27t-33 -9q-8 0 -15 2t-13 4l-768 384q-16 8 -26 24t-10 34z" />
<glyph unicode="=" horiz-adv-x="1152" d="M128 576q0 26 19 45t45 19h768q26 0 45 -19t19 -45t-19 -45t-45 -19h-768q-26 0 -45 19t-19 45zM128 1088q0 26 19 45t45 19h768q26 0 45 -19t19 -45t-19 -45t-45 -19h-768q-26 0 -45 19t-19 45z" />
<glyph unicode="&#x3e;" horiz-adv-x="1152" d="M131 469q-9 -25 3 -49q10 -18 25 -27t33 -9q8 0 15 2t13 4l768 384q16 8 26 24t10 34t-10 34t-26 24l-768 384q-24 12 -49 3t-37 -33t-3 -49t33 -37l652 -326l-652 -326q-24 -12 -33 -37z" />
<glyph unicode="?" horiz-adv-x="1152" d="M128 1216q0 86 15 175t73 155q52 60 140 89t220 29t220 -29t140 -89q58 -66 73 -155t15 -175t-15 -175t-73 -155q-46 -52 -119 -81t-177 -35v-66q0 -26 -19 -45t-45 -19t-45 19t-19 45v128q0 26 19 45t45 19q102 0 166 18t98 56q30 34 43 92t13 154t-13 154t-43 92 q-34 38 -98 56t-166 18t-166 -18t-98 -56q-30 -34 -43 -92t-13 -154q0 -26 -19 -45t-45 -19t-45 19t-19 45zM512 320v128q0 26 19 45t45 19t45 -19t19 -45v-128q0 -26 -19 -45t-45 -19t-45 19t-19 45z" />
<glyph unicode="@" horiz-adv-x="1664" d="M128 960q0 -182 42 -315t128 -219t219 -128t315 -42q168 0 293 35t211 109q20 16 22 42t-16 48q-16 20 -43 22t-47 -16q-68 -56 -172 -84t-248 -28q-156 0 -266 33t-176 101q-68 66 -101 176t-33 266t33 266t101 176q66 68 176 101t266 33t266 -33t176 -101 q68 -66 101 -176t33 -266v-64q0 -28 -21 -78t-107 -50t-107 50t-21 78v64q0 88 -18 147t-56 99q-40 38 -99 56t-147 18t-147 -18t-99 -56q-38 -40 -56 -99t-18 -147t18 -147t56 -99q40 -38 99 -56t147 -18t147 18t99 56q2 2 3 4t3 4q34 -38 84 -60t112 -22q114 0 185 71 t71 185v64q0 182 -42 315t-128 219t-219 128t-315 42t-315 -42t-219 -128t-128 -219t-42 -315zM640 960q0 60 9 98t29 56q18 20 56 29t98 9t98 -9t56 -29q20 -18 29 -56t9 -98t-9 -98t-29 -56q-18 -20 -56 -29t-98 -9t-98 9t-56 29q-20 18 -29 56t-9 98z" />
<glyph unicode="A" horiz-adv-x="1408" d="M132 344q-10 -24 1 -49t35 -35t49 1t35 35l136 344h632l136 -344q8 -18 24 -29t36 -11q6 0 12 1t12 3q24 10 35 35t1 49l-512 1280q-8 18 -24 29t-36 11t-36 -11t-24 -29zM440 768l264 660l264 -660h-528z" />
<glyph unicode="B" d="M128 320v1280q0 26 19 45t45 19h448q116 0 195 -18t131 -58q62 -46 92 -122t30 -186q0 -108 -29 -183t-89 -121q14 -6 26 -13t24 -13q68 -46 100 -121t32 -189t-32 -189t-100 -121q-60 -38 -150 -56t-230 -18h-448q-26 0 -45 19t-19 45zM256 384h384q244 0 314 57t70 199 q0 56 -13 113t-63 89q-40 28 -115 41t-193 13h-384v-512zM256 1024h384q92 0 153 13t97 39q22 16 46 59t24 145t-24 145t-46 59q-36 26 -97 39t-153 13h-384v-512z" />
<glyph unicode="C" horiz-adv-x="1408" d="M128 960q0 192 33 319t103 211q74 88 198 131t306 43q168 0 285 -36t193 -110q20 -18 20 -45t-18 -45q-20 -20 -46 -20t-46 18q-56 56 -151 83t-237 27q-200 0 -286 -44t-122 -86q-54 -64 -79 -171t-25 -275q0 -154 31 -265t97 -179q60 -66 155 -99t229 -33q122 0 213 28 t151 84q20 18 47 16t45 -20q16 -20 15 -47t-19 -45q-80 -72 -192 -108t-260 -36q-162 0 -280 43t-200 129q-80 88 -120 220t-40 312z" />
<glyph unicode="D" horiz-adv-x="1408" d="M128 320v1280q0 26 19 45t45 19h448q182 0 306 -43t198 -131q70 -84 103 -211t33 -319q0 -180 -40 -312t-120 -220q-82 -86 -200 -129t-280 -43h-448q-26 0 -45 19t-19 45zM256 384h384q134 0 229 33t155 99q66 68 97 179t31 265q0 168 -25 275t-79 171q-36 42 -122 86 t-286 44h-384v-1152z" />
<glyph unicode="E" d="M128 320q0 -26 19 -45t45 -19h896q26 0 45 19t19 45t-19 45t-45 19h-832v512h704q26 0 45 19t19 45t-19 45t-45 19h-704v512h832q26 0 45 19t19 45t-19 45t-45 19h-896q-26 0 -45 -19t-19 -45v-1280z" />
<glyph unicode="F" d="M128 320q0 -26 19 -45t45 -19t45 19t19 45v576h704q26 0 45 19t19 45t-19 45t-45 19h-704v512h832q26 0 45 19t19 45t-19 45t-45 19h-896q-26 0 -45 -19t-19 -45v-1280z" />
<glyph unicode="G" horiz-adv-x="1408" d="M128 960q0 192 33 319t103 211q74 88 198 131t306 43q168 0 285 -36t193 -110q20 -18 20 -45t-18 -45q-20 -20 -46 -20t-46 18q-56 56 -151 83t-237 27q-200 0 -286 -44t-122 -86q-54 -64 -79 -171t-25 -275q0 -154 31 -265t97 -179q60 -66 155 -99t229 -33q132 0 227 32 t157 98v382h-192q-26 0 -45 19t-19 45t19 45t45 19h256q26 0 45 -19t19 -45v-470q0 -10 -4 -21t-10 -19q-80 -98 -204 -146t-294 -48q-162 0 -280 43t-200 129q-80 88 -120 220t-40 312z" />
<glyph unicode="H" d="M128 320q0 -26 19 -45t45 -19t45 19t19 45v576h768v-576q0 -26 19 -45t45 -19t45 19t19 45v1280q0 26 -19 45t-45 19t-45 -19t-19 -45v-576h-768v576q0 26 -19 45t-45 19t-45 -19t-19 -45v-1280z" />
<glyph unicode="I" horiz-adv-x="384" d="M128 320v1280q0 26 19 45t45 19t45 -19t19 -45v-1280q0 -26 -19 -45t-45 -19t-45 19t-19 45z" />
<glyph unicode="J" horiz-adv-x="1024" d="M128 436q2 26 22 44q22 16 48 14t42 -22q38 -44 89 -66t119 -22q128 0 182 36t76 70q32 50 47 133t15 209v768q0 26 19 45t45 19t45 -19t19 -45v-768q0 -148 -19 -245t-63 -165q-54 -84 -144 -125t-222 -41q-96 0 -173 34t-131 100q-18 20 -16 46z" />
<glyph unicode="K" d="M128 320q0 -26 19 -45t45 -19t45 19t19 45v560l792 -610q10 -8 20 -11t20 -3q14 0 28 6t22 18q16 22 13 48t-23 42l-768 590l768 590q20 16 23 42t-13 48q-16 20 -42 23t-48 -13l-792 -610v560q0 26 -19 45t-45 19t-45 -19t-19 -45v-1280z" />
<glyph unicode="L" d="M128 320v1280q0 26 19 45t45 19t45 -19t19 -45v-1216h832q26 0 45 -19t19 -45t-19 -45t-45 -19h-896q-26 0 -45 19t-19 45z" />
<glyph unicode="M" horiz-adv-x="1920" d="M130 332l256 1280q4 22 19 36t35 16q22 2 40 -8t26 -30l454 -1020l454 1020q8 20 26 30t40 8q20 -2 35 -16t19 -36l256 -1280q6 -26 -9 -48t-41 -26q-2 -2 -5 -2h-7q-22 0 -40 14t-22 38l-218 1082l-430 -968q-8 -18 -24 -28t-34 -10t-34 10t-24 28l-430 968l-218 -1082 q-4 -26 -26 -41t-48 -9q-26 4 -41 26t-9 48z" />
<glyph unicode="N" d="M128 320v1280q0 20 12 37t32 25q20 6 40 -1t32 -25l780 -1112v1076q0 26 19 45t45 19t45 -19t19 -45v-1280q0 -20 -12 -37t-32 -25q-6 0 -11 -1t-9 -1q-16 0 -30 7t-22 21l-780 1112v-1076q0 -26 -19 -45t-45 -19t-45 19t-19 45z" />
<glyph unicode="O" horiz-adv-x="1536" d="M128 960q0 192 33 319t103 211q74 88 198 131t306 43t306 -43t198 -131q70 -84 103 -211t33 -319q0 -180 -40 -312t-120 -220q-82 -86 -200 -129t-280 -43t-280 43t-200 129q-80 88 -120 220t-40 312zM256 960q0 -154 31 -265t97 -179q60 -66 155 -99t229 -33t229 33 t155 99q66 68 97 179t31 265q0 168 -25 275t-79 171q-36 42 -122 86t-286 44t-286 -44t-122 -86q-54 -64 -79 -171t-25 -275z" />
<glyph unicode="P" d="M128 320v1280q0 26 19 45t45 19h448q140 0 230 -18t150 -56q68 -46 100 -121t32 -189t-32 -189t-100 -121q-60 -38 -150 -56t-230 -18h-384v-576q0 -26 -19 -45t-45 -19t-45 19t-19 45zM256 1024h384q244 0 314 57t70 199q0 162 -86 209t-298 47h-384v-512z" />
<glyph unicode="Q" horiz-adv-x="1536" d="M128 960q0 -180 40 -312t120 -220q74 -78 178 -121t244 -49q8 -44 29 -81t53 -67q48 -42 116 -70t158 -38q30 -4 57 -5t49 -1t35 1t15 1q26 2 43 22t15 46t-22 44t-48 16q-12 -1 -29 -1q-46 0 -127 8q-110 11 -174 71q-14 12 -23 26t-15 28q134 10 234 52t172 118 q80 88 120 220t40 312q0 192 -33 319t-103 211q-74 88 -198 131t-306 43t-306 -43t-198 -131q-70 -84 -103 -211t-33 -319zM256 960q0 168 25 275t79 171q36 42 122 86t286 44t286 -44t122 -86q54 -64 79 -171t25 -275q0 -154 -31 -265t-97 -179q-60 -66 -155 -99t-229 -33 t-229 33t-155 99q-66 68 -97 179t-31 265z" />
<glyph unicode="R" d="M128 320q0 -26 19 -45t45 -19t45 19t19 45v576h384h15h13l366 -608q8 -16 23 -24t31 -8q8 0 17 2t15 8q24 12 30 38t-8 48l-330 552q68 8 119 25t89 41q68 46 100 121t32 189t-32 189t-100 121q-60 38 -150 56t-230 18h-448q-26 0 -45 -19t-19 -45v-1280zM256 1024v512 h384q212 0 298 -47t86 -209q0 -142 -70 -199t-314 -57h-384z" />
<glyph unicode="S" horiz-adv-x="1408" d="M128 1280q0 78 27 143t83 113q72 64 189 96t277 32q252 0 397 -67t151 -71q22 -16 27 -42t-9 -48q-16 -22 -42 -27t-48 9l-33 19t-93 41q-56 20 -145 39t-205 19q-136 0 -232 -24t-150 -72q-34 -30 -50 -70t-16 -90q0 -58 41 -93t83 -57q68 -34 158 -59t182 -49 q96 -24 192 -51t172 -65q98 -50 147 -116t49 -150q0 -78 -27 -143t-83 -113q-72 -64 -189 -96t-277 -32q-252 0 -397 67t-151 71q-22 16 -27 42t9 48q16 22 42 27t48 -9q0 -2 33 -20t93 -40q56 -20 145 -39t205 -19q136 0 232 24t150 72q34 30 50 70t16 90q0 58 -41 94 t-83 56q-68 34 -158 59t-182 49q-96 24 -192 51t-172 65q-98 50 -147 116t-49 150z" />
<glyph unicode="T" horiz-adv-x="1408" d="M128 1600q0 -26 19 -45t45 -19h448v-1216q0 -26 19 -45t45 -19t45 19t19 45v1216h448q26 0 45 19t19 45t-19 45t-45 19h-1024q-26 0 -45 -19t-19 -45z" />
<glyph unicode="U" horiz-adv-x="1408" d="M128 832v768q0 26 19 45t45 19t45 -19t19 -45v-768q0 -130 17 -209t57 -127q46 -58 138 -85t236 -27t236 27t138 85q40 48 57 127t17 209v768q0 26 19 45t45 19t45 -19t19 -45v-768q0 -114 -17 -224t-85 -192t-183 -121t-291 -39t-291 39t-183 121t-85 192t-17 224z" />
<glyph unicode="V" horiz-adv-x="1408" d="M132 1576q-10 24 1 49t35 35t49 -1t35 -35l452 -1132l452 1132q10 24 35 35t49 1t35 -35t1 -49l-512 -1280q-8 -18 -24 -29t-36 -11t-36 11t-24 29z" />
<glyph unicode="W" horiz-adv-x="1920" d="M130 1582q-6 24 6 48t38 32q26 6 49 -6t31 -38l326 -1086l320 960q6 20 23 32t37 12t37 -12t23 -32l320 -960l326 1086q8 26 32 38t48 6q26 -8 38 -31t6 -49l-384 -1280q-6 -20 -23 -33t-39 -13q-20 0 -37 12t-23 32l-324 970l-324 -970q-6 -20 -23 -32t-37 -12 q-22 0 -39 13t-23 33z" />
<glyph unicode="X" d="M129 308q5 -26 27 -40q8 -6 17 -9t19 -3q16 0 30 7t22 21l396 564l396 -564q8 -14 22 -21t30 -7q10 0 19 3t17 9q22 14 27 40t-11 48l-422 604l422 604q16 22 11 48t-27 40q-22 16 -48 11t-40 -27l-396 -564l-396 564q-14 22 -40 27t-48 -11q-22 -14 -27 -40t11 -48 l422 -604l-422 -604q-16 -22 -11 -48z" />
<glyph unicode="Y" horiz-adv-x="1408" d="M129 1612q-5 -26 9 -48l502 -752v-492q0 -26 19 -45t45 -19t45 19t19 45v492l502 752q14 22 9 48t-27 42q-22 14 -48 9t-42 -27l-458 -688l-458 688q-16 22 -42 27t-48 -9q-22 -16 -27 -42z" />
<glyph unicode="Z" horiz-adv-x="1408" d="M128 327q2 19 14 33l940 1176h-890q-26 0 -45 19t-19 45t19 45t45 19h1024q18 0 34 -10t24 -26t6 -35t-14 -33l-940 -1176h890q26 0 45 -19t19 -45t-19 -45t-45 -19h-1024q-18 0 -34 10t-24 26t-6 35z" />
<glyph unicode="[" horiz-adv-x="640" d="M128 -64v1920q0 26 19 45t45 19h256q26 0 45 -19t19 -45t-19 -45t-45 -19h-192v-1792h192q26 0 45 -19t19 -45t-19 -45t-45 -19h-256q-26 0 -45 19t-19 45z" />
<glyph unicode="\" horiz-adv-x="1152" d="M132 1832l768 -1920q8 -18 24 -29t36 -11q6 0 12 1t12 3q24 10 35 35t1 49l-768 1920q-10 24 -35 35t-49 1t-35 -35t-1 -49z" />
<glyph unicode="]" horiz-adv-x="640" d="M128 -64q0 -26 19 -45t45 -19h256q26 0 45 19t19 45v1920q0 26 -19 45t-45 19h-256q-26 0 -45 -19t-19 -45t19 -45t45 -19h192v-1792h-192q-26 0 -45 -19t-19 -45z" />
<glyph unicode="^" horiz-adv-x="1152" d="M128 1079q-4 27 12 47l384 512q10 12 23 19t29 7t29 -7t23 -19l384 -512q16 -20 12 -47t-26 -43q-8 -6 -18 -9t-20 -3q-14 0 -28 7t-24 19l-332 444l-332 -444q-16 -22 -43 -26t-47 12q-22 16 -26 43z" />
<glyph unicode="_" horiz-adv-x="1024" d="M0 64q0 -26 19 -45t45 -19h896q26 0 45 19t19 45t-19 45t-45 19h-896q-26 0 -45 -19t-19 -45z" />
<glyph unicode="`" horiz-adv-x="640" d="M129 1740q5 26 27 42q22 14 48 9t42 -27l256 -384q14 -22 9 -48t-27 -42q-8 -4 -17 -7t-19 -3q-16 0 -30 7t-24 21l-256 384q-14 22 -9 48z" />
<glyph unicode="a" horiz-adv-x="1152" d="M128 576q0 -76 32 -137t92 -103q58 -40 139 -60t185 -20q122 0 199 9t125 31q8 -18 24 -29t36 -11q26 0 45 19t19 45v640q0 88 -32 152t-94 102q-54 34 -133 50t-189 16q-92 0 -161 -11t-121 -33q-24 -12 -34 -36t2 -50q10 -24 35 -33t49 1q38 18 95 26t135 8 q200 0 260 -50t60 -142v-102q-48 20 -125 29t-195 9q-104 0 -185 -20t-139 -60q-60 -42 -92 -103t-32 -137zM256 576q0 44 17 78t51 58q40 28 104 42t148 14q80 0 171 -7t125 -35q16 -14 20 -47t4 -103t-4 -103t-20 -47q-34 -28 -125 -35t-171 -7q-84 0 -148 14t-104 42 q-34 24 -51 58t-17 78z" />
<glyph unicode="b" d="M128 320q0 -26 19 -45t45 -19t45 19t19 45v54q62 -60 156 -89t228 -29q136 0 231 30t159 92q62 64 92 159t30 231t-30 231t-92 159q-64 62 -159 92t-231 30q-134 0 -228 -29t-156 -89v438q0 26 -19 45t-45 19t-45 -19t-19 -45v-1280zM256 768q0 110 21 183t65 115 q42 44 115 65t183 21t183 -21t115 -65q44 -42 65 -115t21 -183t-21 -183t-65 -115q-42 -44 -115 -65t-183 -21t-183 21t-115 65q-44 42 -65 115t-21 183z" />
<glyph unicode="c" horiz-adv-x="1152" d="M128 768q0 136 30 231t92 159q64 62 159 92t231 30q122 0 210 -24t150 -72q20 -16 23 -43t-13 -47q-16 -22 -42 -25t-48 15q-44 34 -113 51t-167 17q-110 0 -183 -21t-115 -65q-44 -42 -65 -115t-21 -183t21 -183t65 -115q42 -44 115 -65t183 -21q98 0 167 17t113 51 q22 18 48 15t42 -25q16 -20 13 -47t-23 -43q-62 -48 -150 -72t-210 -24q-136 0 -231 30t-159 92q-62 64 -92 159t-30 231z" />
<glyph unicode="d" d="M128 768q0 -136 30 -231t92 -159q64 -62 159 -92t231 -30q134 0 228 29t156 89v-54q0 -26 19 -45t45 -19t45 19t19 45v1280q0 26 -19 45t-45 19t-45 -19t-19 -45v-438q-62 60 -156 89t-228 29q-136 0 -231 -30t-159 -92q-62 -64 -92 -159t-30 -231zM256 768q0 110 21 183 t65 115q42 44 115 65t183 21t183 -21t115 -65q44 -42 65 -115t21 -183t-21 -183t-65 -115q-42 -44 -115 -65t-183 -21t-183 21t-115 65q-44 42 -65 115t-21 183z" />
<glyph unicode="e" d="M128 768q0 136 30 231t92 159q64 62 159 92t231 30q126 0 217 -26t153 -78q64 -56 98 -140t42 -200q0 -14 -4 -26t-14 -22q-8 -10 -20 -15t-26 -5h-830q0 -122 15 -193t49 -109q38 -42 115 -62t205 -20q176 0 242 32t90 66q14 20 41 25t47 -11q22 -14 27 -40t-11 -48 q-56 -80 -159 -116t-277 -36q-158 0 -258 30t-158 96q-60 66 -78 163t-18 223zM264 896h750q-10 62 -31 107t-57 75q-42 38 -113 56t-173 18q-110 0 -183 -21t-115 -65q-30 -28 -49 -70t-29 -100z" />
<glyph unicode="f" horiz-adv-x="768" d="M128 320q0 -26 19 -45t45 -19t45 19t19 45v832h320q26 0 45 19t19 45t-19 45t-45 19h-318q2 82 15 130t37 72q28 30 90 42t176 12q26 0 45 19t19 45t-19 45t-45 19q-124 0 -212 -17t-146 -73q-56 -58 -73 -146t-17 -212v-896z" />
<glyph unicode="g" d="M128 768q0 -136 30 -231t92 -159q64 -62 159 -92t231 -30q134 0 228 29t156 89v-116q0 -48 -48 -153t-336 -105q-124 0 -208 26t-128 78q-16 20 -42 22t-48 -14q-20 -18 -22 -44t16 -46q62 -74 171 -112t261 -38q126 0 222 26t162 76q64 50 96 121t32 163v958 q0 26 -19 45t-45 19t-45 -19t-19 -45v-54q-62 60 -156 89t-228 29q-136 0 -231 -30t-159 -92q-62 -64 -92 -159t-30 -231zM256 768q0 110 21 183t65 115q42 44 115 65t183 21t183 -21t115 -65q44 -42 65 -115t21 -183t-21 -183t-65 -115q-42 -44 -115 -65t-183 -21t-183 21 t-115 65q-44 42 -65 115t-21 183z" />
<glyph unicode="h" horiz-adv-x="1152" d="M128 320q0 -26 19 -45t45 -19t45 19t19 45v448q0 110 18 184t56 118q36 42 96 62t150 20t150 -20t96 -62q38 -44 56 -118t18 -184v-448q0 -26 19 -45t45 -19t45 19t19 45v448q0 134 -26 229t-78 157q-56 64 -141 95t-203 31q-106 0 -186 -25t-134 -77v422q0 26 -19 45 t-45 19t-45 -19t-19 -45v-1280z" />
<glyph unicode="i" horiz-adv-x="384" d="M128 320v896q0 26 19 45t45 19t45 -19t19 -45v-896q0 -26 -19 -45t-45 -19t-45 19t-19 45zM128 1472v128q0 26 19 45t45 19t45 -19t19 -45v-128q0 -26 -19 -45t-45 -19t-45 19t-19 45z" />
<glyph unicode="j" horiz-adv-x="512" d="M-128 -66q-2 26 16 46t44 22q92 4 154 26t98 60q36 42 54 114t18 182v832q0 26 19 45t45 19t45 -19t19 -45v-832q0 -134 -26 -227t-80 -153q-52 -60 -135 -92t-203 -38h-3h-1q-26 0 -44 17t-20 43zM256 1472v128q0 26 19 45t45 19t45 -19t19 -45v-128q0 -26 -19 -45 t-45 -19t-45 19t-19 45z" />
<glyph unicode="k" horiz-adv-x="896" d="M128 320q0 -26 19 -45t45 -19t45 19t19 45v490l396 -528q10 -12 24 -19t28 -7q10 0 20 3t18 9q22 16 26 43t-12 47l-352 468l346 344q18 20 18 46t-18 46q-20 18 -46 18t-46 -18l-402 -404v742q0 26 -19 45t-45 19t-45 -19t-19 -45v-1280z" />
<glyph unicode="l" horiz-adv-x="384" d="M128 448q0 -106 67 -149t125 -43q26 0 45 19t19 45t-19 45t-45 19q-4 0 -16 2t-22 8t-18 17t-8 37v1152q0 26 -19 45t-45 19t-45 -19t-19 -45v-1152z" />
<glyph unicode="m" horiz-adv-x="1920" d="M128 320q0 -26 19 -45t45 -19t45 19t19 45v448q0 110 18 184t56 118q36 42 96 62t150 20t150 -20t96 -62q38 -44 56 -118t18 -184v-448q0 -26 19 -45t45 -19t45 19t19 45v448q0 110 18 184t56 118q36 42 96 62t150 20t150 -20t96 -62q38 -44 56 -118t18 -184v-448 q0 -26 19 -45t45 -19t45 19t19 45v448q0 134 -26 229t-78 157q-56 64 -141 95t-203 31t-203 -31t-141 -95q-10 -14 -21 -29t-19 -31q-8 16 -19 31t-21 29q-56 64 -141 95t-203 31q-106 0 -186 -25t-134 -77v38q0 26 -19 45t-45 19t-45 -19t-19 -45v-896z" />
<glyph unicode="n" horiz-adv-x="1152" d="M128 320q0 -26 19 -45t45 -19t45 19t19 45v448q0 110 18 184t56 118q36 42 96 62t150 20t150 -20t96 -62q38 -44 56 -118t18 -184v-448q0 -26 19 -45t45 -19t45 19t19 45v448q0 134 -26 229t-78 157q-56 64 -141 95t-203 31q-106 0 -186 -25t-134 -77v38q0 26 -19 45 t-45 19t-45 -19t-19 -45v-896z" />
<glyph unicode="o" d="M128 768q0 136 30 231t92 159q64 62 159 92t231 30t231 -30t159 -92q62 -64 92 -159t30 -231t-30 -231t-92 -159q-64 -62 -159 -92t-231 -30t-231 30t-159 92q-62 64 -92 159t-30 231zM256 768q0 -110 21 -183t65 -115q42 -44 115 -65t183 -21t183 21t115 65 q44 42 65 115t21 183t-21 183t-65 115q-42 44 -115 65t-183 21t-183 -21t-115 -65q-44 -42 -65 -115t-21 -183z" />
<glyph unicode="p" d="M128 -64q0 -26 19 -45t45 -19t45 19t19 45v438q62 -60 156 -89t228 -29q136 0 231 30t159 92q62 64 92 159t30 231t-30 231t-92 159q-64 62 -159 92t-231 30q-134 0 -228 -29t-156 -89v54q0 26 -19 45t-45 19t-45 -19t-19 -45v-1280zM256 768q0 110 21 183t65 115 q42 44 115 65t183 21t183 -21t115 -65q44 -42 65 -115t21 -183t-21 -183t-65 -115q-42 -44 -115 -65t-183 -21t-183 21t-115 65q-44 42 -65 115t-21 183z" />
<glyph unicode="q" d="M128 768q0 -136 30 -231t92 -159q64 -62 159 -92t231 -30q134 0 228 29t156 89v-438q0 -26 19 -45t45 -19t45 19t19 45v1280q0 26 -19 45t-45 19t-45 -19t-19 -45v-54q-62 60 -156 89t-228 29q-136 0 -231 -30t-159 -92q-62 -64 -92 -159t-30 -231zM256 768q0 110 21 183 t65 115q42 44 115 65t183 21t183 -21t115 -65q44 -42 65 -115t21 -183t-21 -183t-65 -115q-42 -44 -115 -65t-183 -21t-183 21t-115 65q-44 42 -65 115t-21 183z" />
<glyph unicode="r" horiz-adv-x="768" d="M128 320q0 -26 19 -45t45 -19t45 19t19 45v448q0 110 18 184t56 118q36 42 96 62t150 20q26 0 45 19t19 45t-19 45t-45 19q-106 0 -186 -25t-134 -77v38q0 26 -19 45t-45 19t-45 -19t-19 -45v-896z" />
<glyph unicode="s" horiz-adv-x="1024" d="M128 448q0 26 18 46q20 18 46 18t46 -18q40 -42 116 -76t158 -34q72 0 127 15t85 45q28 24 36 52t8 48q0 66 -72 98t-200 64q-62 16 -123 34t-111 44q-68 38 -101 90t-33 118q0 104 86 196t298 92q114 0 213 -47t145 -105q18 -20 15 -46t-23 -44q-20 -16 -47 -14t-43 24 q-32 36 -106 70t-154 34q-72 0 -127 -15t-85 -45q-28 -24 -36 -52t-8 -48q0 -66 72 -98t200 -64q62 -16 123 -34t111 -44q68 -38 101 -90t33 -118q0 -104 -86 -196t-298 -92q-112 0 -212 47t-154 99q-18 20 -18 46z" />
<glyph unicode="t" horiz-adv-x="768" d="M128 704q0 -124 17 -212t73 -146q58 -56 146 -73t212 -17q26 0 45 19t19 45t-19 45t-45 19q-114 0 -176 12t-90 42q-30 28 -42 90t-12 176v448h320q26 0 45 19t19 45t-19 45t-45 19h-320v320q0 26 -19 45t-45 19t-45 -19t-19 -45v-896z" />
<glyph unicode="u" horiz-adv-x="1152" d="M128 768q0 -134 26 -229t78 -157q56 -64 141 -95t203 -31q106 0 186 25t134 77v-38q0 -26 19 -45t45 -19t45 19t19 45v896q0 26 -19 45t-45 19t-45 -19t-19 -45v-448q0 -110 -18 -184t-56 -118q-36 -42 -96 -62t-150 -20t-150 20t-96 62q-38 44 -56 118t-18 184v448 q0 26 -19 45t-45 19t-45 -19t-19 -45v-448z" />
<glyph unicode="v" horiz-adv-x="1152" d="M132 1240q10 24 34 34q26 12 50 2t34 -34l326 -760l326 760q10 24 34 34t50 -2q24 -10 34 -34t-2 -50l-384 -896q-6 -16 -22 -27t-36 -11t-36 11t-22 27l-384 896q-12 26 -2 50z" />
<glyph unicode="w" horiz-adv-x="1920" d="M132 1240q-10 -24 2 -50l384 -896q6 -16 22 -27t36 -11t36 11t22 27l326 760l326 -760q6 -16 22 -27t36 -11t36 11t22 27l384 896q12 26 2 50t-34 34q-26 12 -50 2t-34 -34l-326 -760l-326 760q-4 10 -12 19t-20 13q-26 12 -50 2t-34 -34l-326 -760l-326 760 q-10 24 -34 34t-50 -2q-24 -10 -34 -34z" />
<glyph unicode="x" horiz-adv-x="1152" d="M128 315q2 -27 22 -43q10 -8 20 -12t22 -4q14 0 27 6t21 16l336 392l336 -392q8 -10 21 -16t27 -6q12 0 22 4t20 12q20 16 22 43t-16 47l-348 406l348 406q18 20 16 47t-22 43q-20 18 -47 16t-43 -22l-336 -392l-336 392q-16 20 -43 22t-47 -16q-20 -16 -22 -43t16 -47 l348 -406l-348 -406q-18 -20 -16 -47z" />
<glyph unicode="y" horiz-adv-x="1152" d="M128 -64q0 -26 19 -45t45 -19q66 0 133 16t125 76q48 48 90 127t94 203l384 896q12 26 2 50t-34 34q-26 12 -50 2t-34 -34l-326 -760l-326 760q-10 24 -34 34t-50 -2q-24 -10 -34 -34t2 -50l372 -870q-96 -220 -151 -270t-163 -50q-26 0 -45 -19t-19 -45z" />
<glyph unicode="z" horiz-adv-x="1152" d="M128 1216q0 26 19 45t45 19h768q18 0 34 -10t24 -28q8 -16 5 -35t-15 -33l-676 -790h628q26 0 45 -19t19 -45t-19 -45t-45 -19h-768q-18 0 -34 10t-24 28q-8 16 -5 35t15 33l676 790h-628q-26 0 -45 19t-19 45z" />
<glyph unicode="{" horiz-adv-x="896" d="M128 960q0 -26 19 -45t45 -19h64q52 0 90 -38t38 -90v-640q0 -106 75 -181t181 -75h64q26 0 45 19t19 45t-19 45t-45 19h-64q-52 0 -90 38t-38 90v640q0 58 -24 107t-62 85q38 36 62 85t24 107v512q0 52 38 90t90 38h64q26 0 45 19t19 45t-19 45t-45 19h-64 q-106 0 -181 -75t-75 -181v-512q0 -52 -38 -90t-90 -38h-64q-26 0 -45 -19t-19 -45z" />
<glyph unicode="|" horiz-adv-x="384" d="M128 -64v1920q0 26 19 45t45 19t45 -19t19 -45v-1920q0 -26 -19 -45t-45 -19t-45 19t-19 45z" />
<glyph unicode="}" horiz-adv-x="896" d="M128 -64q0 26 19 45t45 19h64q52 0 90 38t38 90v640q0 58 24 107t62 85q-38 36 -62 85t-24 107v512q0 52 -38 90t-90 38h-64q-26 0 -45 19t-19 45t19 45t45 19h64q106 0 181 -75t75 -181v-512q0 -52 38 -90t90 -38h64q26 0 45 -19t19 -45t-19 -45t-45 -19h-64 q-52 0 -90 -38t-38 -90v-640q0 -106 -75 -181t-181 -75h-64q-26 0 -45 19t-19 45z" />
<glyph unicode="~" d="M132 726q42 118 95 184t119 86q88 28 172 -16t158 -96q60 -42 118 -75t102 -19q34 10 68 59t64 133q8 24 32 36t50 2q24 -8 36 -32t2 -50q-42 -118 -95 -184t-119 -86q-16 -6 -31 -8t-31 -2q-72 0 -139 39t-129 83q-60 42 -118 75t-102 19q-34 -10 -68 -59t-64 -133 q-6 -20 -23 -31t-37 -11q-6 0 -11 1t-11 3q-24 8 -36 32t-2 50z" />
<glyph unicode="&#xa0;" horiz-adv-x="1024" d="M0 0z" />
<glyph unicode="&#xa9;" horiz-adv-x="1664" d="M128 960q0 182 42 315t128 219t219 128t315 42t315 -42t219 -128t128 -219t42 -315t-42 -315t-128 -219t-219 -128t-315 -42t-315 42t-219 128t-128 219t-42 315zM256 960q0 -156 33 -266t101 -176q66 -68 176 -101t266 -33t266 33t176 101q68 66 101 176t33 266t-33 266 t-101 176q-66 68 -176 101t-266 33t-266 -33t-176 -101q-68 -66 -101 -176t-33 -266zM512 960q0 88 18 147t56 99q40 38 99 56t147 18t178 -29t124 -145q8 -24 -5 -48t-37 -32q-26 -6 -49 6t-31 38q-10 34 -41 58t-139 24q-60 0 -98 -9t-56 -29q-20 -18 -29 -56t-9 -98 t9 -98t29 -56q18 -20 56 -29t98 -9q108 0 139 24t41 58q8 26 31 38t49 6q24 -8 37 -32t5 -48q-34 -116 -124 -145t-178 -29t-147 18t-99 56q-38 40 -56 99t-18 147z" />
<glyph unicode="&#xad;" horiz-adv-x="896" d="M128 832q0 -26 19 -45t45 -19h512q26 0 45 19t19 45t-19 45t-45 19h-512q-26 0 -45 -19t-19 -45z" />
<glyph unicode="&#x2000;" horiz-adv-x="960" />
<glyph unicode="&#x2001;" horiz-adv-x="1920" />
<glyph unicode="&#x2002;" horiz-adv-x="960" />
<glyph unicode="&#x2003;" horiz-adv-x="1920" />
<glyph unicode="&#x2004;" horiz-adv-x="640" />
<glyph unicode="&#x2005;" horiz-adv-x="480" />
<glyph unicode="&#x2006;" horiz-adv-x="320" />
<glyph unicode="&#x2007;" horiz-adv-x="320" />
<glyph unicode="&#x2008;" horiz-adv-x="240" />
<glyph unicode="&#x2009;" horiz-adv-x="384" />
<glyph unicode="&#x200a;" horiz-adv-x="106" />
<glyph unicode="&#x2010;" horiz-adv-x="896" d="M128 832q0 -26 19 -45t45 -19h512q26 0 45 19t19 45t-19 45t-45 19h-512q-26 0 -45 -19t-19 -45z" />
<glyph unicode="&#x2011;" horiz-adv-x="896" d="M128 832q0 -26 19 -45t45 -19h512q26 0 45 19t19 45t-19 45t-45 19h-512q-26 0 -45 -19t-19 -45z" />
<glyph unicode="&#x2012;" horiz-adv-x="896" d="M128 832q0 -26 19 -45t45 -19h512q26 0 45 19t19 45t-19 45t-45 19h-512q-26 0 -45 -19t-19 -45z" />
<glyph unicode="&#x2013;" d="M128 832q0 -26 30.5 -45t71.5 -19h820q41 0 71.5 19t30.5 45t-30.5 45t-71.5 19h-820q-41 0 -71.5 -19t-30.5 -45z" />
<glyph unicode="&#x2014;" horiz-adv-x="2304" d="M128 832q0 -26 61 -45t144 -19h1638q83 0 144 19t61 45t-61 45t-144 19h-1638q-83 0 -144 -19t-61 -45z" />
<glyph unicode="&#x202f;" horiz-adv-x="384" />
<glyph unicode="&#x205f;" horiz-adv-x="480" />
<glyph unicode="&#x25fc;" d="M0 0v1280h1280v-1280h-1280z" />
</font>
</defs>
</svg>
