<?xml version="1.0" encoding="utf-8"?>
<!-- Generator: Adobe Illustrator 15.0.0, SVG Export Plug-In . SVG Version: 6.00 Build 0)  -->
<!DOCTYPE svg PUBLIC "-//W3C//DTD SVG 1.1//EN" "http://www.w3.org/Graphics/SVG/1.1/DTD/svg11.dtd">
<svg version="1.1" id="Layer_1" xmlns="http://www.w3.org/2000/svg" xmlns:xlink="http://www.w3.org/1999/xlink" x="0px" y="0px"
	 width="25px" height="25px" viewBox="0 0 25 25" enable-background="new 0 0 25 25" xml:space="preserve">
<path display="none" fill="#FFFFFF" d="M15.306,5.095v2.776c0.74,0.323,1.42,0.784,2.008,1.371c1.234,1.235,1.913,2.876,1.913,4.622
	s-0.679,3.385-1.913,4.62c-1.234,1.234-2.876,1.914-4.622,1.914s-3.386-0.68-4.622-1.914c-1.234-1.233-1.913-2.874-1.913-4.62
	s0.678-3.385,1.913-4.622c0.588-0.587,1.267-1.048,2.008-1.371V5.095C6.3,6.22,3.543,9.721,3.543,13.864
	c0,5.054,4.096,9.148,9.148,9.148c5.053,0,9.148-4.095,9.148-9.148C21.84,9.721,19.084,6.22,15.306,5.095 M11.384,2.102h2.614
	v10.455h-2.614V2.102z"/>
<path display="none" fill="#454545" d="M19.504,9.617l-3.79-3.223c-0.392-0.353-0.811-0.514-1.148-0.499
	C15.46,4.847,16,3.488,16,2.002c0-3.314-2.686-6-6-6s-6,2.686-6,6s2.686,6,6,6c1.486,0,2.845-0.54,3.893-1.435
	c-0.016,0.338,0.146,0.757,0.499,1.149l3.224,3.79c0.552,0.613,1.453,0.665,2.003,0.115C20.168,11.071,20.116,10.169,19.504,9.617
	L19.504,9.617z M10,6.001c-2.209,0-4-1.791-4-4s1.791-4,4-4s4,1.791,4,4S12.209,6.001,10,6.001"/>
<path fill="#F3F3F3" d="M13,2c4.418,0,8,3.582,8,8c0,3.012-1.665,5.635-4.125,7h-7.75C6.665,15.635,5,13.012,5,10
	C5,5.582,8.582,2,13,2 M17.53,14.53c1.21-1.21,1.876-2.819,1.876-4.53H18V9h1.329c-0.11-0.703-0.334-1.377-0.665-2H17V6h1.004
	c-0.146-0.184-0.306-0.361-0.475-0.53c-0.723-0.722-1.587-1.251-2.53-1.559V5h-1V3.671c-0.328-0.051-0.662-0.078-1-0.078
	s-0.672,0.026-1,0.078V5h-1V3.911C10.056,4.22,9.191,4.748,8.469,5.47C8.3,5.639,8.142,5.816,7.994,6h1.004v1H7.334
	C7.003,7.623,6.779,8.297,6.669,9h1.329v1H6.592c0,1.711,0.666,3.32,1.876,4.53c0.167,0.167,0.343,0.323,0.524,0.47h3.006l0.571-8
	h0.856l0.571,8h3.006c0.182-0.146,0.357-0.303,0.524-0.47H17.53z"/>
<path display="none" fill="#F3F3F3" d="M18.5,4.001h-12c-0.825,0-1.5,0.675-1.5,1.5v13c0,0.825,0.675,1.5,1.5,1.5h12
	c0.825,0,1.5-0.675,1.5-1.5v-13C20,4.676,19.325,4.001,18.5,4.001 M18,18.001H7v-12h11V18.001z M9,13.001h7v1H9V13.001z M9,15.001h7
	v1H9V15.001z M10,8.501c0-0.828,0.672-1.5,1.5-1.5s1.5,0.672,1.5,1.5s-0.672,1.5-1.5,1.5S10,9.329,10,8.501 M12.5,10.001h-2
	c-0.825,0-1.5,0.45-1.5,1v1h5v-1C14,10.451,13.325,10.001,12.5,10.001"/>
</svg>
