<?xml version="1.0" encoding="utf-8"?>
<!-- Generator: Adobe Illustrator 15.0.0, SVG Export Plug-In . SVG Version: 6.00 Build 0)  -->
<!DOCTYPE svg PUBLIC "-//W3C//DTD SVG 1.1//EN" "http://www.w3.org/Graphics/SVG/1.1/DTD/svg11.dtd">
<svg version="1.1" id="Layer_1" xmlns="http://www.w3.org/2000/svg" xmlns:xlink="http://www.w3.org/1999/xlink" x="0px" y="0px"
	 width="25px" height="25px" viewBox="0 0 25 25" enable-background="new 0 0 25 25" xml:space="preserve">
<path display="none" fill="#FFFFFF" d="M15.307,5.095v2.776c0.739,0.323,1.42,0.784,2.008,1.371
	c1.233,1.235,1.912,2.876,1.912,4.622c0,1.745-0.679,3.385-1.912,4.62c-1.234,1.233-2.877,1.914-4.623,1.914
	c-1.746,0-3.386-0.681-4.622-1.914c-1.234-1.233-1.913-2.875-1.913-4.62c0-1.746,0.678-3.385,1.913-4.622
	c0.588-0.587,1.267-1.048,2.008-1.371V5.095C6.3,6.22,3.543,9.721,3.543,13.864c0,5.054,4.096,9.147,9.148,9.147
	c5.053,0,9.148-4.095,9.148-9.147C21.84,9.721,19.084,6.22,15.307,5.095 M11.384,2.102h2.614v10.455h-2.614V2.102z"/>
<path display="none" fill="#454545" d="M19.504,9.617l-3.79-3.223c-0.392-0.353-0.812-0.514-1.147-0.499
	C15.46,4.847,16,3.488,16,2.002c0-3.314-2.686-6-6-6c-3.314,0-6,2.686-6,6s2.686,6,6,6c1.486,0,2.845-0.54,3.893-1.435
	c-0.016,0.338,0.146,0.757,0.5,1.149l3.224,3.79c0.552,0.613,1.452,0.665,2.003,0.115C20.168,11.071,20.116,10.169,19.504,9.617
	L19.504,9.617z M10,6.001c-2.209,0-4-1.791-4-4s1.791-4,4-4s4,1.791,4,4S12.209,6.001,10,6.001"/>
<path display="none" fill="#454545" d="M12-2.999c4.418,0,8,3.582,8,8c0,3.012-1.665,5.635-4.125,7h-7.75
	C5.665,10.636,4,8.013,4,5.001C4,0.583,7.582-2.999,12-2.999 M16.529,9.531c1.211-1.21,1.877-2.819,1.877-4.53H17v-1h1.329
	c-0.11-0.703-0.334-1.377-0.665-2H16v-1h1.004c-0.146-0.184-0.306-0.361-0.475-0.53c-0.723-0.722-1.588-1.251-2.53-1.559v1.089h-1
	v-1.329c-0.328-0.051-0.662-0.078-1-0.078s-0.672,0.026-1,0.078v1.329h-1v-1.089c-0.943,0.309-1.808,0.837-2.53,1.559
	C7.3,0.64,7.142,0.817,6.994,1.001h1.004v1H6.334c-0.331,0.623-0.555,1.297-0.665,2h1.329v1H5.592c0,1.711,0.666,3.32,1.876,4.53
	c0.167,0.167,0.343,0.324,0.524,0.47h3.006l0.571-8h0.856l0.571,8h3.006c0.182-0.146,0.357-0.303,0.523-0.47H16.529z"/>
<path display="none" fill="#F3F3F3" d="M18.5,4.001h-12c-0.825,0-1.5,0.675-1.5,1.5v13c0,0.825,0.675,1.5,1.5,1.5h12
	c0.825,0,1.5-0.675,1.5-1.5v-13C20,4.676,19.325,4.001,18.5,4.001 M18,18.001H7v-12h11V18.001z M9,13.001h7v1H9V13.001z M9,15.001h7
	v1H9V15.001z M10,8.501c0-0.828,0.672-1.5,1.5-1.5s1.5,0.672,1.5,1.5s-0.672,1.5-1.5,1.5S10,9.329,10,8.501 M12.5,10.001h-2
	c-0.825,0-1.5,0.45-1.5,1v1h5v-1C14,10.451,13.325,10.001,12.5,10.001"/>
<path fill="#F3F3F3" d="M15.35,6.409v2.233c0.596,0.26,1.142,0.631,1.615,1.104c0.993,0.993,1.54,2.314,1.54,3.719
	c0,1.404-0.547,2.725-1.54,3.718c-0.993,0.992-2.313,1.539-3.719,1.539c-1.404,0-2.723-0.547-3.717-1.539
	C8.536,16.19,7.99,14.869,7.99,13.465c0-1.405,0.546-2.725,1.539-3.719c0.473-0.473,1.02-0.844,1.615-1.104V6.409
	c-3.039,0.905-5.257,3.721-5.257,7.056c0,4.064,3.295,7.359,7.36,7.359c4.066,0,7.361-3.295,7.361-7.359
	C20.607,10.13,18.389,7.314,15.35,6.409 M12.195,4.001h2.104v8.412h-2.104V4.001z"/>
</svg>
