<?xml version="1.0" encoding="utf-8"?>
<!-- Generator: Adobe Illustrator 15.0.0, SVG Export Plug-In . SVG Version: 6.00 Build 0)  -->
<!DOCTYPE svg PUBLIC "-//W3C//DTD SVG 1.1//EN" "http://www.w3.org/Graphics/SVG/1.1/DTD/svg11.dtd">
<svg version="1.1" id="Layer_1" xmlns="http://www.w3.org/2000/svg" xmlns:xlink="http://www.w3.org/1999/xlink" x="0px" y="0px"
	 width="30px" height="30px" viewBox="0 0 30 30" enable-background="new 0 0 30 30" xml:space="preserve">
<path display="none" fill="#454545" d="M18,6.436v3.186c0.85,0.371,1.629,0.9,2.305,1.575c1.416,1.417,2.195,3.3,2.195,5.304
	s-0.779,3.886-2.195,5.304c-1.417,1.416-3.301,2.196-5.305,2.196s-3.886-0.78-5.304-2.196c-1.417-1.416-2.196-3.3-2.196-5.304
	s0.779-3.886,2.196-5.304C10.371,10.522,11.15,9.993,12,9.622V6.436c-4.336,1.292-7.5,5.309-7.5,10.065c0,5.8,4.701,10.5,10.5,10.5
	c5.799,0,10.5-4.7,10.5-10.5C25.5,11.745,22.336,7.728,18,6.436 M13.5,3.001h3v12h-3V3.001z"/>
<path fill="#4665AF" d="M19.118,4.02c-3.79,0-6.863,3.074-6.863,6.863c0,0.43,0.04,0.85,0.115,1.257l-8.351,8.351v4.118
	c0,0.757,0.615,1.372,1.373,1.372h1.373v-1.372H9.51v-2.745h2.745v-2.745H15l1.781-1.782c0.729,0.263,1.518,0.409,2.337,0.409
	c3.789,0,6.862-3.073,6.862-6.863C25.98,7.094,22.907,4.02,19.118,4.02 M21.174,10.886c-1.137,0-2.059-0.922-2.059-2.059
	c0-1.137,0.922-2.059,2.059-2.059s2.06,0.922,2.06,2.059C23.233,9.963,22.311,10.886,21.174,10.886"/>
</svg>
